<?xml version="1.0" encoding="UTF-8" standalone="no"?>
<!-- Created with Inkscape (http://www.inkscape.org/) -->

<svg
   xmlns:dc="http://purl.org/dc/elements/1.1/"
   xmlns:cc="http://creativecommons.org/ns#"
   xmlns:rdf="http://www.w3.org/1999/02/22-rdf-syntax-ns#"
   xmlns:svg="http://www.w3.org/2000/svg"
   xmlns="http://www.w3.org/2000/svg"
   xmlns:sodipodi="http://sodipodi.sourceforge.net/DTD/sodipodi-0.dtd"
   xmlns:inkscape="http://www.inkscape.org/namespaces/inkscape"
   width="297mm"
   height="210mm"
   viewBox="0 0 297 210"
   version="1.1"
   id="svg3719"
   inkscape:version="0.92.4 (5da689c313, 2019-01-14)"
   sodipodi:docname="blobs.svg">
  <defs
     id="defs3713" />
  <sodipodi:namedview
     id="base"
     pagecolor="#f7f4f0"
     bordercolor="#666666"
     borderopacity="1.0"
     inkscape:pageopacity="1"
     inkscape:pageshadow="2"
     inkscape:zoom="0.35"
     inkscape:cx="-64.285714"
     inkscape:cy="331.42857"
     inkscape:document-units="mm"
     inkscape:current-layer="layer1"
     showgrid="false"
     units="mm"
     inkscape:window-width="1600"
     inkscape:window-height="877"
     inkscape:window-x="-8"
     inkscape:window-y="-8"
     inkscape:window-maximized="1" />
  <metadata
     id="metadata3716">
    <rdf:RDF>
      <cc:Work
         rdf:about="">
        <dc:format>image/svg+xml</dc:format>
        <dc:type
           rdf:resource="http://purl.org/dc/dcmitype/StillImage" />
        <dc:title></dc:title>
      </cc:Work>
    </rdf:RDF>
  </metadata>
  <g
     inkscape:label="Layer 1"
     inkscape:groupmode="layer"
     id="layer1"
     transform="translate(0,-87)">
    <path
       id="path3733"
       d="m 32.025637,139.39685 c 9.763131,8.28146 13.678961,25.16187 10.265831,40.42833 -3.43958,15.26646 -14.234581,28.94542 -28.336871,35.74521 -14.10229338,6.77333 -31.511876,6.69396 -41.857084,-1.00542 -10.31875,-7.67292 -13.599583,-22.99229 -19.288125,-40.005 -5.688541,-17.03916 -13.784791,-35.74521 -7.831666,-43.15354 5.979583,-7.40833 26.061458,-3.4925 43.867916,-1.71979 17.8329156,1.79917 33.416879,1.45521 43.179999,9.71021 z"
       inkscape:connector-curvature="0"
       style="fill:#dd3d41;fill-opacity:1;stroke-width:0.26458332" />
    <path
       id="path4677"
       d="m 114.0924,155.52756 c 0.31136,16.25908 0.80951,16.39345 10.52374,27.04247 9.71423,10.64902 28.70679,31.81269 28.39543,41.65548 -0.31135,9.84279 -19.92661,8.43188 -32.2562,0.57108 -12.3296,-7.82719 -17.37353,-22.07068 -29.360631,-31.91346 -11.9871,-9.87639 -30.917386,-15.31847 -28.800182,-18.54342 2.086055,-3.19134 25.157346,-4.16554 37.144461,-20.39103 11.987112,-16.22548 12.890032,-47.76943 13.388192,-47.36632 0.52929,0.40312 0.65384,32.71971 0.96519,48.9452 z"
       inkscape:connector-curvature="0"
       style="fill:#f4af51;fill-opacity:1;stroke-width:0.32340896" />
    <path
       id="path4720"
       d="m 222.17035,179.2294 c 4.34947,6.73281 5.32652,15.78916 3.51425,22.74151 -1.81228,6.93406 -6.39813,11.76411 -7.01273,19.3751 -0.6146,7.611 2.75781,18.00293 0.70915,25.06506 -2.04866,7.06212 -9.5184,10.79444 -14.52974,6.87916 -5.0271,-3.93356 -7.58005,-15.51471 -14.65581,-20.67409 -7.06,-5.17767 -18.64282,-3.93357 -24.77304,-8.78191 -6.14598,-4.84836 -6.83938,-15.77087 -4.28643,-25.65052 2.56871,-9.86136 8.38375,-18.67987 15.80621,-24.26005 7.42246,-5.59847 16.43657,-7.95861 24.80456,-6.91576 8.36799,1.02456 16.08988,5.47041 20.42358,12.2215 z"
       inkscape:connector-curvature="0"
       style="fill:#001de7;fill-opacity:1;stroke-width:0.16979991" />
    <path
       id="path4753"
       d="m 281.92665,103.55387 c 5.02708,10.98021 7.83166,17.70062 16.29833,26.61708 8.44021,8.91646 22.51604,20.05542 21.21958,26.82875 -1.29645,6.77333 -17.99166,9.18104 -30.05666,15.66333 -12.09146,6.48229 -19.55271,17.03917 -27.38438,17.54188 -7.83166,0.47625 -16.00729,-9.04875 -25.32062,-16.43063 -9.31333,-7.38187 -19.73792,-12.62062 -21.48417,-20.13479 -1.71979,-7.54062 5.23875,-17.38312 8.94292,-28.09875 3.70417,-10.74208 4.18042,-22.35729 10.00125,-33.072914 5.84729,-10.715625 17.03917,-20.531667 26.27312,-17.832917 9.2075,2.725208 16.48354,17.965208 21.51063,28.918961 z"
       inkscape:connector-curvature="0"
       style="fill:#f4af51;stroke-width:0.26458332;fill-opacity:1" />
    <path
       id="path4796"
       d="m 91.869386,237.4962 c 6.50967,17.81732 4.4226,32.87153 2.68337,44.73385 -1.73924,11.8147 -3.18031,20.48517 -8.64643,24.34399 -5.46615,3.85885 -15.00704,2.95368 -24.84609,10.38551 -9.88875,7.47947 -20.07564,23.2959 -28.37423,24.53454 -8.29859,1.23865 -14.65919,-12.05289 -15.50396,-23.58176 -0.84476,-11.4812 3.87599,-21.15211 10.78321,-25.53497 6.90721,-4.38288 16.05056,-3.43007 20.9701,-21.53324 4.86982,-18.05553 5.51582,-55.11936 13.41688,-63.4087 7.85135,-8.2417 23.00746,12.24345 29.51715,30.06078 z"
       inkscape:connector-curvature="0"
       style="fill:#001de7;fill-opacity:1;stroke-width:0.48655212" />
    <path
       id="path4971"
       d="m 303.21155,244.59065 c 6.6675,8.78417 9.94834,18.28271 15.58396,28.68083 5.60917,10.37167 13.59958,21.61646 14.23458,33.86667 0.635,12.22375 -6.05895,25.42646 -16.6952,33.28458 -10.66271,7.88459 -25.26771,10.42459 -35.08375,3.78354 -9.78959,-6.64104 -14.76375,-22.46312 -20.34646,-31.96166 -5.58271,-9.525 -11.7475,-12.75292 -16.06021,-18.38854 -4.31271,-5.63563 -6.74687,-13.67896 -7.11729,-23.68021 -0.39688,-10.02771 1.27,-22.01333 8.06979,-30.74458 6.79979,-8.73125 18.70604,-14.20813 29.71271,-12.91167 10.98021,1.29646 21.03437,9.31333 27.70187,18.07104 z"
       inkscape:connector-curvature="0"
       style="fill:#dd3d41;fill-opacity:1;stroke-width:0.26458332" />
  </g>
</svg>
